<?xml version="1.0" encoding="UTF-8"?>
<svg id="Layer_1" xmlns="http://www.w3.org/2000/svg" viewBox="0 0 2991.99 2914">
  <defs>
    <style>
      .cls-1 {
        fill: #010101;
      }

      .cls-2 {
        fill: #231f20;
      }

      .cls-3 {
        fill: #fff;
      }
    </style>
  </defs>
  <g>
    <path class="cls-1" d="M1487.14,465.35c-453.26,0-820.54,367.33-820.58,820.58.04,453.16,367.33,820.49,820.58,820.49,226.54,0,431.68-91.74,580.15-240.25l.09-.09c148.47-148.42,240.34-353.61,240.34-580.15,0-453.26-367.42-820.58-820.58-820.58ZM1487.14,2067.81c-216,0-411.34-87.47-552.85-229.08-141.47-141.42-228.99-336.9-229.04-552.8.05-209.01,82.11-398.57,215.64-538.91l1105.16,1105.16c-140.34,133.43-329.9,215.64-538.91,215.64ZM2053.29,1824.75L948.27,719.68c5.18-4.9,10.31-9.99,15.71-14.8,138.57-124.8,321.87-200.83,523.15-200.92,216,.09,411.29,87.56,552.9,228.99,141.47,141.61,228.99,336.99,228.99,552.99,0,201.28-76.07,384.49-200.83,523.01-4.81,5.45-9.9,10.63-14.9,15.81Z"/>
    <g>
      <path class="cls-1" d="M1848.86,1810.02h-733.37c-13.62,0-26.53-6.57-34.54-17.58-8.01-11.01-10.29-25.33-6.1-38.29l188.13-581.27v-150.67l-49.16-49.16c-8.07-8.06-12.51-18.79-12.51-30.2v-56.28c0-23.55,19.16-42.71,42.71-42.71h487.3c22.66,0,41.08,19.16,41.08,42.71v56.28c0,11.01-4.01,21.47-11.3,29.44l-45.1,49.31v151.58l172.13,581.54c3.94,13.31,1.38,27.82-6.82,38.81-7.83,10.48-19.65,16.49-32.44,16.49ZM1121.77,1762.75h719.42l-170.65-576.55c-1.21-4.05-1.82-8.3-1.82-12.58v-153.29c0-11.01,4.01-21.47,11.3-29.44l45.1-49.31v-50.43h-476.54v49.82l49.16,49.16c8.08,8.08,12.51,18.8,12.51,30.2v153.29c0,4.45-.69,8.87-2.07,13.14l-186.42,575.99Z"/>
      <path class="cls-1" d="M1197.99,1720.56c2.87,1.73,6.92,3.57,11.62,4.97,9.46,2.92,21.46,4.65,31.84,4.54h504.3c8.81,0,17.14-.43,24.06-1.41,6.97-.97,12.27-2.7,15.14-4.43,1.84-1.08,2.92-2.05,3.62-3.14h-.05c1.51-1.84,3.67-8.11,3.57-17.19.11-9.95-2.16-22.38-5.62-33.51l-38.92-127.25c-10.11-3.03-18.49-6.92-25.08-10.6-9.78-5.19-16.22-8.97-24.86-11.35-5.84-1.62-12.97-2.7-23.19-2.7-13.24,0-21.35,1.84-28.17,4.32-6.92,2.49-13.08,6.16-21.84,10.7-5.78,3.14-12.7,6.49-20.92,9.08-10.97,3.57-24.11,5.84-40.06,5.84-17.84,0-32.33-2.81-44-7.25-11.79-4.32-20.27-9.51-27.35-13.3-4.87-2.38-8.97-4.32-13.73-5.95-6.38-1.95-14.06-3.46-25.84-3.46-13.3,0-21.3,1.84-28.11,4.32-6.92,2.49-13.08,6.16-21.84,10.7-5.84,3.14-12.7,6.49-20.87,9.08-11.03,3.57-24.16,5.84-40.11,5.84-17.84,0-32.33-2.81-44-7.25-11.79-4.32-20.22-9.51-27.35-13.3-4.76-2.38-8.97-4.32-13.73-5.95-2.76-.86-5.73-1.62-9.24-2.16l-46.54,150.6h0c-2.54,8-4.92,15.67-6.6,22.49-1.73,6.59-2.54,12.43-2.54,16.43.11,4.43.81,6.05,1.57,7.03.49.86,2.06,2.59,4.87,4.22Z"/>
      <path class="cls-1" d="M1269.65,1624.28l-22.41-104.5s25.5-117.3,130.33-81.84c104.84,35.46,92.51,35.46,166.51,37,110.68,2.31,152.63-87.88,203.45,68.19,79.01,242.64-194.2,133.78-194.2,133.78l-283.68-52.64Z"/>
      <path class="cls-1" d="M1388.41,1419.42c23.03-.09,41.51-18.71,41.56-41.6-.04-22.98-18.53-41.6-41.56-41.6s-41.65,18.62-41.65,41.6,18.62,41.51,41.65,41.6Z"/>
      <path class="cls-1" d="M1504.61,1377.82c23.03-.09,41.51-18.71,41.56-41.6-.04-22.98-18.53-41.6-41.56-41.6s-41.65,18.62-41.65,41.6,18.62,41.51,41.65,41.6Z"/>
      <path class="cls-1" d="M1568.33,1184.59c35.26-.14,63.56-28.65,63.63-63.7-.07-35.19-28.37-63.7-63.63-63.7s-63.77,28.51-63.77,63.7,28.51,63.56,63.77,63.7Z"/>
      <path class="cls-1" d="M1593.03,810.07c48.91-.19,88.18-39.75,88.27-88.37-.09-48.82-39.36-88.37-88.27-88.37s-88.47,39.55-88.47,88.37,39.56,88.18,88.47,88.37Z"/>
    </g>
    <polygon class="cls-3" points="1135.05 855.22 1166.47 937.89 1854.85 1626.3 1896.68 1612 1135.05 855.22"/>
    <path class="cls-1" d="M1481.35,2122.8c-461.47,0-836.91-375.44-836.91-836.91s375.44-836.92,836.91-836.92,836.92,375.44,836.92,836.92-375.44,836.91-836.92,836.91ZM1481.35,543.53c-409.34,0-742.35,333.02-742.35,742.36s333.01,742.35,742.35,742.35,742.36-333.01,742.36-742.35-333.02-742.36-742.36-742.36Z"/>
  </g>
  <g>
    <path class="cls-2" d="M607.37,2463.62l-81.51-78.7v74.18c0,4.52-9.16,4.52-18.43,4.52s-18.44,0-18.44-4.42v-145.01c0-3.23,2.59-3.23,5.28-3.23s5.17,0,6.79,1.4l81.3,80.43v-76c0-4.42,9.16-4.42,18.43-4.42s18.54,0,18.54,4.42v144.9c0,3.34-2.48,3.34-5.17,3.34s-5.28,0-6.79-1.41Z"/>
    <path class="cls-2" d="M641.08,2387.94c0-42.37,34.72-76.76,77.52-76.76s77.52,34.39,77.52,76.76-34.72,76.87-77.52,76.87-77.52-34.39-77.52-76.87ZM756.01,2387.94c0-21.99-16.06-39.03-37.41-39.03s-37.52,17.04-37.52,39.03,16.17,39.14,37.52,39.14,37.41-17.25,37.41-39.14Z"/>
    <path class="cls-2" d="M861.2,2458.67v-142.63c0-1.73,1.3-3.13,2.91-3.13h61.99c24.91,0,46.9,19.3,46.9,49.16s-21.99,49.16-46.9,49.16h-27.92v47.34c0,4.52-9.17,4.52-18.44,4.52s-18.54,0-18.54-4.42ZM933.97,2362.18c0-7.44-5.93-13.48-13.37-13.48h-22.42v26.96h22.42c7.44,0,13.37-6.04,13.37-13.47Z"/>
    <path class="cls-2" d="M993.79,2458.67v-142.63c0-1.73,1.3-3.13,2.91-3.13h61.99c24.91,0,46.9,19.3,46.9,49.16,0,18.65-8.84,33.31-21.77,41.07l28.89,54.23c.33.65.54,1.3.54,1.84,0,3.88-8.63,3.88-17.14,3.88-9.81,0-19.62,0-21.24-3.23l-24.36-48.63h-19.73v47.44c0,4.31-9.27,4.42-18.54,4.42s-18.44-.1-18.44-4.42ZM1066.56,2362.18c0-7.44-5.93-13.48-13.37-13.48h-22.42v26.96h22.42c7.44,0,13.37-6.04,13.37-13.47Z"/>
    <path class="cls-2" d="M1132.63,2459.48v-142.96c0-1.73,1.29-3.02,2.9-3.02l98.33-.1c4.64,0,4.74,8.84,4.74,17.79s-.1,18-4.74,18h-64.26v20.81h53.16c4.42,0,4.53,7.87,4.53,15.63s-.11,15.74-4.53,15.74h-53.16v25.44l64.15-.11c4.75,0,4.85,8.95,4.85,18.01s-.1,17.9-4.74,17.9h-98.33c-1.62,0-2.9-1.51-2.9-3.13Z"/>
    <path class="cls-2" d="M1251.53,2443.2c-.54-.64-.76-1.29-.76-2.16,0-3.45,3.45-8.52,7.11-13.59,4.42-6.03,9.38-11.86,12.61-11.86.54,0,.97.21,1.4.54,6.69,5.82,20.92,13.16,32.88,13.16,13.47,0,19.08-4.43,19.08-9.92,0-6.36-9.06-10.24-19.84-14.77-18.97-7.76-46.57-19.3-46.57-47.76,0-26.3,22.43-45.71,56.39-45.71,20.16,0,38.16,6.9,48.52,15.85.64.53.86,1.5.86,2.59,0,3.45-2.9,9.16-6.03,13.9-4.21,6.58-9.17,13.27-13.27,13.27-.75,0-1.5-.22-2.15-.65-6.26-4.74-17.68-8.95-27.93-8.95-11.54,0-16.28,3.66-16.28,8.73,0,5.39,8.09,8.52,18.01,12.61,19.19,7.77,48.52,19.63,48.52,50.89,0,26.31-25.98,45.5-59.3,45.5-20.49,0-41.73-8.41-53.26-21.67Z"/>
    <path class="cls-2" d="M1387.03,2459.48v-142.96c0-1.73,1.29-3.02,2.9-3.02l98.33-.1c4.64,0,4.74,8.84,4.74,17.79s-.1,18-4.74,18h-64.26v20.81h53.16c4.42,0,4.53,7.87,4.53,15.63s-.11,15.74-4.53,15.74h-53.16v25.44l64.15-.11c4.75,0,4.85,8.95,4.85,18.01s-.1,17.9-4.74,17.9h-98.33c-1.62,0-2.9-1.51-2.9-3.13Z"/>
    <path class="cls-2" d="M1516.92,2458.67v-142.63c0-1.73,1.29-3.13,2.9-3.13h62c24.9,0,46.9,19.3,46.9,49.16,0,18.65-8.84,33.31-21.78,41.07l28.9,54.23c.32.65.53,1.3.53,1.84,0,3.88-8.62,3.88-17.13,3.88-9.81,0-19.63,0-21.24-3.23l-24.37-48.63h-19.73v47.44c0,4.31-9.27,4.42-18.54,4.42s-18.43-.1-18.43-4.42ZM1589.7,2362.18c0-7.44-5.93-13.48-13.37-13.48h-22.43v26.96h22.43c7.44,0,13.37-6.04,13.37-13.47Z"/>
    <path class="cls-2" d="M1707.95,2462.23l-68.14-144.9c-.33-.65-.54-1.3-.54-1.73,0-4.1,9.49-4.1,18.98-4.1,10.56,0,21.23,0,22.86,3.77l33.2,78.06,33.1-78.06c1.73-3.77,12.18-3.77,22.86-3.77,9.49,0,18.97,0,18.97,4.1,0,.54-.21,1.07-.43,1.62l-68.03,145.01c-1.19,2.16-4.1,2.26-6.36,2.26-2.59,0-5.4-.1-6.47-2.26Z"/>
    <path class="cls-2" d="M1763.77,2460.24c0-.43.11-.97.43-1.62l69.22-144.79c1.08-2.16,3.77-2.16,6.47-2.16s5.28,0,6.36,2.16l69.33,144.9c.33.54.43,1.08.43,1.51,0,3.88-9.38,4.09-18.65,4.09-10.46,0-20.81-.1-22.21-3.56l-7.66-18.86h-55.09l-7.77,18.86c-1.5,3.45-11.86,3.56-22.32,3.56-9.27,0-18.54,0-18.54-4.09ZM1825.66,2411.94h28.9l-14.45-33.64-14.44,33.64Z"/>
    <path class="cls-2" d="M1932.7,2458.67v-109.97h-39.57c-4.31,0-4.31-8.95-4.31-18s0-17.79,4.43-17.79h116c4.43,0,4.43,8.84,4.43,17.79s0,18-4.43,18h-39.57v109.87c0,4.52-9.27,4.52-18.54,4.52s-18.43,0-18.43-4.42Z"/>
    <path class="cls-2" d="M2033.91,2459.11v-142.32c0-4.31,9.17-4.43,18.54-4.43s18.44.11,18.44,4.43v142.32c0,4.42-9.17,4.52-18.44,4.52s-18.54-.1-18.54-4.52Z"/>
    <path class="cls-2" d="M2152.6,2462.23l-68.14-144.9c-.33-.65-.54-1.3-.54-1.73,0-4.1,9.49-4.1,18.98-4.1,10.56,0,21.23,0,22.86,3.77l33.2,78.06,33.1-78.06c1.73-3.77,12.18-3.77,22.86-3.77,9.49,0,18.97,0,18.97,4.1,0,.54-.21,1.07-.43,1.62l-68.03,145.01c-1.19,2.16-4.1,2.26-6.36,2.26-2.59,0-5.4-.1-6.47-2.26Z"/>
    <path class="cls-2" d="M2242.28,2459.48v-142.96c0-1.73,1.29-3.02,2.9-3.02l98.33-.1c4.64,0,4.74,8.84,4.74,17.79s-.1,18-4.74,18h-64.26v20.81h53.16c4.42,0,4.53,7.87,4.53,15.63s-.11,15.74-4.53,15.74h-53.16v25.44l64.15-.11c4.75,0,4.85,8.95,4.85,18.01s-.1,17.9-4.74,17.9h-98.33c-1.62,0-2.9-1.51-2.9-3.13Z"/>
    <path class="cls-2" d="M2361.17,2443.2c-.54-.64-.76-1.29-.76-2.16,0-3.45,3.45-8.52,7.11-13.59,4.42-6.03,9.38-11.86,12.61-11.86.54,0,.97.21,1.4.54,6.69,5.82,20.92,13.16,32.88,13.16,13.47,0,19.08-4.43,19.08-9.92,0-6.36-9.06-10.24-19.84-14.77-18.97-7.76-46.57-19.3-46.57-47.76,0-26.3,22.43-45.71,56.39-45.71,20.16,0,38.16,6.9,48.52,15.85.64.53.86,1.5.86,2.59,0,3.45-2.9,9.16-6.03,13.9-4.21,6.58-9.17,13.27-13.27,13.27-.75,0-1.5-.22-2.15-.65-6.26-4.74-17.68-8.95-27.93-8.95-11.54,0-16.28,3.66-16.28,8.73,0,5.39,8.09,8.52,18.01,12.61,19.19,7.77,48.52,19.63,48.52,50.89,0,26.31-25.98,45.5-59.3,45.5-20.49,0-41.73-8.41-53.26-21.67Z"/>
  </g>
</svg>